<svg xmlns="http://www.w3.org/2000/svg" viewBox="0 0 65.79 65.79"><defs><style>.cls-1{fill:none;stroke:#ae9743;stroke-miterlimit:10;stroke-width:2.95px;}.cls-2{fill:#fff;}</style></defs><title>auditoria-icon</title><g id="Camada_2" data-name="Camada 2"><g id="layout"><circle class="cls-1" cx="32.89" cy="32.89" r="31.42"/><path class="cls-2" d="M37.29,17.8V11H16.73l-5.24,5.48V45.86H26.42v6.85h25.8V17.8ZM26.42,43.33H14V17.44l3.79-4h17V17.8H26.42v.63H15.92v2h10.5v3a7.44,7.44,0,0,0-.78.44H15.92v2h7.52a9.09,9.09,0,0,0-1.82,3.84h-5.7v2h5.51a9.19,9.19,0,0,0,.77,3.58H15.92v2h7.47a8,8,0,0,0,.72.82,9,9,0,0,0,2.31,1.68Zm18.15.44a1.24,1.24,0,1,1-1.75,1.76L34.7,37.39a7.13,7.13,0,1,1,1.74-1.74l8.13,8.12Zm5.12,6.41H29v-9.6a9.66,9.66,0,0,0,1.62.15,9.05,9.05,0,0,0,3.75-.8l2.17,2.18H30.85v2h7.62L41.37,47a3.26,3.26,0,0,0,5.51-2.89h.91v-2H45.72l-3.58-3.59h5.65v-2H40.16l-1.23-1.22a9.09,9.09,0,0,0,.74-2.62h8.12v-2H39.7a9.2,9.2,0,0,0-1-3.45h9.13v-2H37.22l-.16-.18a9.1,9.1,0,0,0-6.48-2.68,8.83,8.83,0,0,0-1.63.15V20.33H49.69Z"/></g></g></svg>