<svg xmlns="http://www.w3.org/2000/svg" viewBox="0 0 65.79 65.79"><defs><style>.cls-1{fill:none;stroke:#ae9743;stroke-miterlimit:10;stroke-width:2.95px;}.cls-2{fill:#fff;}</style></defs><title>consultoria-icon</title><g id="Camada_2" data-name="Camada 2"><g id="layout"><circle class="cls-1" cx="32.89" cy="32.89" r="31.42"/><path class="cls-2" d="M26.74,19.7v.88h-.88a2.64,2.64,0,0,0-2.64,2.64h0a2.64,2.64,0,0,0,2.63,2.64h3.53a.88.88,0,1,1,0,1.75H25.86a.87.87,0,0,1-.88-.87H23.22a2.64,2.64,0,0,0,2.64,2.63h.88v.88h1.75v-.88h.88a2.64,2.64,0,0,0,0-5.27H25.85a.9.9,0,0,1-.62-.26.88.88,0,0,1,.63-1.5h3.51a.87.87,0,0,1,.88.88H32a2.64,2.64,0,0,0-2.64-2.64h-.88V19.7Z"/><path class="cls-2" d="M48.73,19.7H43.45V17.06a5.27,5.27,0,0,0-5.28-5.28H17.06a5.27,5.27,0,0,0-5.28,5.28V32.89a5.29,5.29,0,0,0,4,5.13L13.61,43.1a.91.91,0,0,0,0,.74l.88,1.76a.88.88,0,0,0,.79.49.86.86,0,0,0,.47-.14l12.1-7.78h10.3a5.27,5.27,0,0,0,5.28-5.28V21.46h5.28A3.52,3.52,0,0,1,52.25,25V40.81a3.53,3.53,0,0,1-3.52,3.52.84.84,0,0,0-.35.07.88.88,0,0,0-.46,1.16l2.48,5.78-.26.52L38.65,44.47a.9.9,0,0,0-.48-.14H27.61a3.52,3.52,0,0,1-3.22-2.11l-1.61.7a5.27,5.27,0,0,0,4.83,3.17h10.3L50,53.87a.89.89,0,0,0,1.27-.35l.88-1.76a.91.91,0,0,0,0-.74L50,45.94a5.31,5.31,0,0,0,4-5.13V25A5.29,5.29,0,0,0,48.73,19.7Zm-7,13.19a3.51,3.51,0,0,1-3.52,3.52H27.61a.89.89,0,0,0-.47.14l-11.5,7.39-.25-.52,2.48-5.78a1,1,0,0,0,.07-.35.89.89,0,0,0-.88-.88,3.51,3.51,0,0,1-3.52-3.52V17.06a3.51,3.51,0,0,1,3.52-3.52H38.17a3.51,3.51,0,0,1,3.52,3.52V32.89Z"/><path class="cls-2" d="M33.46,28.88a7,7,0,0,1-11.7,0,.87.87,0,0,0-.73-.39h-4v1.76h3.52a8.79,8.79,0,0,0,14.07,0h3.52V28.49h-4A.91.91,0,0,0,33.46,28.88Z"/><path class="cls-2" d="M32.89,17.94A8.78,8.78,0,0,0,20.58,19.7H17.06v1.76h4a.91.91,0,0,0,.74-.39,7,7,0,0,1,11.7,0,.87.87,0,0,0,.73.39h4V19.7H34.65A8.63,8.63,0,0,0,32.89,17.94Z"/><rect class="cls-2" x="45.21" y="25.86" width="5.28" height="1.76"/><rect class="cls-2" x="45.21" y="32.89" width="5.28" height="1.76"/><rect class="cls-2" x="45.21" y="39.93" width="5.28" height="1.76"/><rect class="cls-2" x="45.21" y="29.37" width="1.76" height="1.76"/><rect class="cls-2" x="48.73" y="29.37" width="1.76" height="1.76"/><rect class="cls-2" x="45.21" y="36.41" width="1.76" height="1.76"/><rect class="cls-2" x="48.73" y="36.41" width="1.76" height="1.76"/><rect class="cls-2" x="33.77" y="39.93" width="9.68" height="1.76"/><rect class="cls-2" x="27.61" y="39.93" width="4.4" height="1.76"/></g></g></svg>