<svg xmlns="http://www.w3.org/2000/svg" viewBox="0 0 104.69 104.69"><defs><style>.cls-1{fill:none;stroke:#ae9743;stroke-miterlimit:10;stroke-width:4.69px;}.cls-2{fill:#284270;}</style></defs><title>consultoria-icon_1</title><g id="Camada_2" data-name="Camada 2"><g id="layout"><circle class="cls-1" cx="52.35" cy="52.35" r="50"/><path class="cls-2" d="M42.55,31.35v1.4h-1.4A4.2,4.2,0,0,0,37,37h0a4.18,4.18,0,0,0,4.18,4.2h5.63a1.4,1.4,0,0,1,0,2.8h-5.6a1.4,1.4,0,0,1-1.4-1.4H37a4.2,4.2,0,0,0,4.2,4.2h1.4v1.4h2.79v-1.4h1.41a4.2,4.2,0,0,0,0-8.4H41.13a1.39,1.39,0,0,1-1-.41,1.43,1.43,0,0,1-.41-1,1.39,1.39,0,0,1,1.41-1.39h5.6a1.4,1.4,0,0,1,1.4,1.4H51a4.2,4.2,0,0,0-4.2-4.2H45.34v-1.4Z"/><path class="cls-2" d="M77.55,31.35h-8.4v-4.2a8.41,8.41,0,0,0-8.4-8.4H27.15a8.4,8.4,0,0,0-8.4,8.4v25.2a8.4,8.4,0,0,0,6.38,8.15l-3.47,8.1a1.41,1.41,0,0,0,0,1.17l1.4,2.8a1.41,1.41,0,0,0,1.26.78,1.43,1.43,0,0,0,.75-.22L44.36,60.75H60.75a8.42,8.42,0,0,0,8.4-8.4V34.15h8.4a5.6,5.6,0,0,1,5.6,5.6V65a5.6,5.6,0,0,1-5.6,5.6,1.55,1.55,0,0,0-.56.11,1.41,1.41,0,0,0-.73,1.84l3.95,9.21-.42.82L61.5,70.77a1.4,1.4,0,0,0-.75-.22H44a5.61,5.61,0,0,1-5.14-3.36l-2.56,1.12a8.4,8.4,0,0,0,7.7,5H60.34L79.59,85.73a1.46,1.46,0,0,0,.76.22,1.4,1.4,0,0,0,1.25-.78l1.4-2.8a1.37,1.37,0,0,0,0-1.17l-3.47-8.1A8.42,8.42,0,0,0,86,65V39.75A8.41,8.41,0,0,0,77.55,31.35Zm-11.2,21a5.6,5.6,0,0,1-5.6,5.6H44a1.35,1.35,0,0,0-.76.22L24.9,69.93l-.41-.83,3.94-9.2a1.33,1.33,0,0,0,.12-.55,1.4,1.4,0,0,0-1.4-1.4,5.6,5.6,0,0,1-5.6-5.6V27.15a5.59,5.59,0,0,1,5.6-5.6h33.6a5.6,5.6,0,0,1,5.6,5.6v25.2Z"/><path class="cls-2" d="M53.26,46a11.21,11.21,0,0,1-18.62,0,1.42,1.42,0,0,0-1.17-.62H27.15v2.8h5.6a14,14,0,0,0,22.4,0h5.6v-2.8H54.42A1.38,1.38,0,0,0,53.26,46Z"/><path class="cls-2" d="M52.35,28.55a14,14,0,0,0-19.6,2.8h-5.6v2.8h6.32a1.43,1.43,0,0,0,1.17-.62,11.19,11.19,0,0,1,18.62,0,1.42,1.42,0,0,0,1.16.62h6.33v-2.8h-5.6A13.76,13.76,0,0,0,52.35,28.55Z"/><rect class="cls-2" x="71.95" y="41.15" width="8.4" height="2.8"/><rect class="cls-2" x="71.95" y="52.35" width="8.4" height="2.8"/><rect class="cls-2" x="71.95" y="63.55" width="8.4" height="2.8"/><rect class="cls-2" x="71.95" y="46.75" width="2.8" height="2.8"/><rect class="cls-2" x="77.55" y="46.75" width="2.8" height="2.8"/><rect class="cls-2" x="71.95" y="57.95" width="2.8" height="2.8"/><rect class="cls-2" x="77.55" y="57.95" width="2.8" height="2.8"/><rect class="cls-2" x="53.75" y="63.55" width="15.4" height="2.8"/><rect class="cls-2" x="43.95" y="63.55" width="7" height="2.8"/></g></g></svg>