<?xml version="1.0" encoding="utf-8"?>
<!-- Generator: Adobe Illustrator 23.0.3, SVG Export Plug-In . SVG Version: 6.00 Build 0)  -->
<svg version="1.1" id="Camada_1" xmlns="http://www.w3.org/2000/svg" xmlns:xlink="http://www.w3.org/1999/xlink" x="0px" y="0px"
	 viewBox="0 0 104.7 104.7" style="enable-background:new 0 0 104.7 104.7;" xml:space="preserve">
<style type="text/css">
	.st0{fill:none;stroke:#AE9743;stroke-width:4.69;stroke-miterlimit:10;}
	.st1{fill:#284270;}
</style>
<g>
	<g id="layout">
		<circle class="st0" cx="52.3" cy="52.3" r="50"/>
		<g>
			<g>
				<g>
					<path class="st1" d="M66.7,35.3c-0.2-0.2-0.5-0.4-0.9-0.4c-0.3,0-0.6,0.1-0.9,0.4c-0.2,0.2-0.4,0.5-0.4,0.9
						c0,0.3,0.1,0.6,0.4,0.9c0.2,0.2,0.5,0.4,0.9,0.4c0.3,0,0.6-0.1,0.9-0.4c0.2-0.2,0.4-0.5,0.4-0.9S66.9,35.5,66.7,35.3z"/>
				</g>
			</g>
			<g>
				<g>
					<path class="st1" d="M39.6,52.1H30c-0.7,0-1.2,0.5-1.2,1.2V63c0,0.7,0.5,1.2,1.2,1.2h9.6c0.7,0,1.2-0.5,1.2-1.2v-9.6
						C40.8,52.7,40.2,52.1,39.6,52.1z M38.4,61.8h-7.2v-7.2h7.2V61.8z"/>
				</g>
			</g>
			<g>
				<g>
					<path class="st1" d="M82.5,43.4c-0.5-0.2-1-0.1-1.3,0.3L68.9,56l0,0l0,0L54.5,70.3l0,0l0,0L47,77.8c-0.3,0.3-0.4,0.9-0.3,1.3
						c0.2,0.5,0.6,0.7,1.1,0.7H82c0.7,0,1.2-0.5,1.2-1.2V44.5C83.2,44.1,82.9,43.6,82.5,43.4z M80.8,77.5h-30l4.6-4.6l1.2,1.2
						c0.2,0.2,0.5,0.4,0.9,0.4s0.6-0.1,0.9-0.4c0.5-0.5,0.5-1.2,0-1.7l-1.2-1.2l3.1-3.1l1.2,1.2c0.2,0.2,0.5,0.4,0.9,0.4
						c0.3,0,0.6-0.1,0.9-0.4c0.5-0.5,0.5-1.2,0-1.7l-1.2-1.2l3.1-3.1l1.2,1.2c0.2,0.2,0.5,0.4,0.9,0.4c0.3,0,0.6-0.1,0.9-0.4
						c0.5-0.5,0.5-1.2,0-1.7L67,61.6l3.1-3.1l1.2,1.2c0.2,0.2,0.5,0.4,0.9,0.4s0.6-0.1,0.9-0.4c0.5-0.5,0.5-1.2,0-1.7l-1.2-1.2
						l3.1-3.1l1.2,1.2c0.2,0.2,0.5,0.4,0.9,0.4c0.3,0,0.6-0.1,0.9-0.4c0.5-0.5,0.5-1.2,0-1.7L76.8,52l4.6-4.6v30.1H80.8z"/>
				</g>
			</g>
			<g>
				<g>
					<path class="st1" d="M76.4,58c-0.5-0.2-1-0.1-1.3,0.3L61.6,71.8c-0.3,0.3-0.4,0.9-0.3,1.3c0.2,0.5,0.6,0.7,1.1,0.7H76
						c0.7,0,1.2-0.5,1.2-1.2V59.1C77.2,58.6,76.9,58.2,76.4,58z M74.8,71.4h-9.4l9.4-9.4V71.4z"/>
				</g>
			</g>
			<g>
				<g>
					<path class="st1" d="M77.3,36.1c-0.3-0.3-0.8-0.4-1.3-0.3l-8.2,3c-0.2,0.1-0.3,0.2-0.4,0.3l-2.3,2.3L49.9,26.3
						c-0.2-0.2-0.5-0.4-0.9-0.4s-0.6,0.1-0.9,0.4L30,44.5h-4.4L49.1,21L62,33.9c0.5,0.5,1.2,0.5,1.7,0c0.5-0.5,0.5-1.2,0-1.7
						L49.9,18.5c-0.5-0.5-1.2-0.5-1.7,0L21.8,44.9c-0.3,0.3-0.4,0.9-0.3,1.3c0.2,0.5,0.6,0.7,1.1,0.7h1.2v31.7
						c0,0.7,0.5,1.2,1.2,1.2h19.2c0.7,0,1.2-0.5,1.2-1.2s-0.5-1.2-1.2-1.2h-18V47h4.2c0.3,0,0.6-0.1,0.9-0.4L49,28.9l14.3,14.3
						L45.5,61.1V50.2h8.4c0.7,0,1.2-0.5,1.2-1.2s-0.5-1.2-1.2-1.2h-9.6c-0.7,0-1.2,0.5-1.2,1.2v14c0,0.1,0,0.3,0.1,0.4l-1.1,1.1
						c-1.9,1.9-1.9,5,0,6.9c1,1,2.2,1.4,3.5,1.4s2.5-0.5,3.5-1.4l10.2-10.2c0.5-0.5,0.5-1.2,0-1.7s-1.2-0.5-1.7,0l-7.7,7.7l-3.5-3.5
						l22-22l3.5,3.5l-8.4,8.4c-0.5,0.5-0.5,1.2,0,1.7s1.2,0.5,1.7,0l9.2-9.2c0.1-0.1,0.2-0.3,0.3-0.4l3-8.2
						C77.8,37,77.7,36.5,77.3,36.1z M48,68.9l-0.8,0.8c-0.5,0.5-1.1,0.7-1.8,0.7s-1.3-0.3-1.8-0.7c-0.5-0.5-0.7-1.1-0.7-1.8
						s0.3-1.3,0.7-1.8l0.8-0.8L48,68.9z M73,43l-2.5-2.5l4-1.5L73,43z"/>
				</g>
			</g>
			<g>
				<g>
					<path class="st1" d="M62.1,56.6c-0.2-0.2-0.5-0.4-0.9-0.4s-0.6,0.1-0.9,0.4c-0.2,0.2-0.4,0.5-0.4,0.9c0,0.3,0.1,0.6,0.4,0.9
						c0.2,0.2,0.5,0.4,0.9,0.4c0.3,0,0.6-0.1,0.9-0.4c0.2-0.2,0.4-0.5,0.4-0.9S62.3,56.8,62.1,56.6z"/>
				</g>
			</g>
			<g>
				<g>
					<path class="st1" d="M49.1,36.3c-2.5,0-4.6,2.1-4.6,4.6s2.1,4.6,4.6,4.6s4.6-2.1,4.6-4.6S51.6,36.3,49.1,36.3z M49.1,43.1
						c-1.2,0-2.2-1-2.2-2.2s1-2.2,2.2-2.2s2.2,1,2.2,2.2S50.3,43.1,49.1,43.1z"/>
				</g>
			</g>
		</g>
	</g>
</g>
</svg>
