<svg xmlns="http://www.w3.org/2000/svg" viewBox="0 0 22.3 22.3"><defs><style>.cls-1{fill:#fff;}</style></defs><title>face-icon-white</title><g id="Camada_2" data-name="Camada 2"><g id="layout"><path class="cls-1" d="M17.72,0H4.58A4.58,4.58,0,0,0,0,4.58V17.72A4.58,4.58,0,0,0,4.58,22.3h7.51V13.43h-3V10h3V7.57h0c0-2.32.86-3.12.86-3.12A4.17,4.17,0,0,1,16.12,2.9h3.09V6.13H17.15a1.41,1.41,0,0,0-1.54,1.44h0V10h3.44l-.42,3.43h-3V22.3h2.11a4.58,4.58,0,0,0,4.58-4.58V4.58A4.58,4.58,0,0,0,17.72,0Z"/></g></g></svg>