<svg xmlns="http://www.w3.org/2000/svg" viewBox="0 0 104.69 104.69"><defs><style>.cls-1,.cls-2{fill:none;stroke-miterlimit:10;}.cls-1{stroke:#284270;stroke-width:3px;}.cls-2{stroke:#ae9743;stroke-width:4.69px;}</style></defs><title>gerenciamento-icon_1</title><g id="Camada_2" data-name="Camada 2"><g id="layout"><path class="cls-1" d="M42.79,48.3,36,50.35a16.68,16.68,0,0,0,33.25.17L61.94,48.3a3.36,3.36,0,0,0-1.32-1.64,23.44,23.44,0,0,0,1.77-2.25A24.15,24.15,0,0,0,65,39.52a20.83,20.83,0,0,0,.78-2.05,3.75,3.75,0,0,0,1.33-2.86v-2.7a3.68,3.68,0,0,0-.69-2.16V25.94a12.11,12.11,0,0,0-12.1-12.09H50.4A12.11,12.11,0,0,0,38.31,25.94v3.81a3.68,3.68,0,0,0-.69,2.16v2.7A3.75,3.75,0,0,0,39,37.47a20.83,20.83,0,0,0,.78,2.05,24.15,24.15,0,0,0,2.61,4.89,23.44,23.44,0,0,0,1.77,2.25,3.36,3.36,0,0,0-1.32,1.64Zm.12-12.72,0-.32-.76-.49a.77.77,0,0,1-.35-.65V32.84a.78.78,0,0,1,.78-.77h.31V30.69a.79.79,0,0,1,.43-.7,12.87,12.87,0,0,1,5.38-1.42A5.75,5.75,0,0,1,53,30.3a6.48,6.48,0,0,0,4.75,2.15,7.39,7.39,0,0,0,3.06-.7.81.81,0,0,1,.74.06.88.88,0,0,1,.25.26h.42a.78.78,0,0,1,.78.77v1.28a.78.78,0,0,1-.36.65l-.75.49,0,.32A15.93,15.93,0,0,1,59,42c-1.9,2.75-3.67,4-4.59,4H50.28c-.92,0-2.69-1.23-4.59-4a15.93,15.93,0,0,1-2.78-6.42Z"/><path class="cls-1" d="M85.48,48.26H77.94a3.89,3.89,0,0,0-3.89,3.89,21.41,21.41,0,0,1-42.82,0,3.89,3.89,0,0,0-3.89-3.89H19.21a3.89,3.89,0,0,0,0,7.78h4.5A29,29,0,0,0,29,69.21l-3.71,3.7a3.9,3.9,0,0,0,5.51,5.51l3.55-3.56A29,29,0,0,0,48.46,81V87a3.89,3.89,0,1,0,7.78,0V81.12a29,29,0,0,0,14.39-6l3.3,3.3a3.89,3.89,0,0,0,5.5-5.51l-3.36-3.36A29,29,0,0,0,81.58,56h3.9a3.89,3.89,0,0,0,0-7.78Z"/><circle class="cls-2" cx="52.35" cy="52.35" r="50"/></g></g></svg>