<svg xmlns="http://www.w3.org/2000/svg" viewBox="0 0 65.79 65.79"><defs><style>.cls-1,.cls-2,.cls-3{fill:none;stroke-miterlimit:10;}.cls-1,.cls-2{stroke:#fff;}.cls-1{stroke-width:1.32px;}.cls-2{stroke-width:1.4px;}.cls-3{stroke:#ae9743;stroke-width:2.95px;}</style></defs><title>gerenciamento-icon</title><g id="Camada_2" data-name="Camada 2"><g id="layout"><path class="cls-1" d="M26.89,30.35l-4.26,1.29a10.48,10.48,0,0,0,20.89.1l-4.6-1.39a2.08,2.08,0,0,0-.83-1,13.72,13.72,0,0,0,1.11-1.41,14.82,14.82,0,0,0,1.64-3.08,11.33,11.33,0,0,0,.49-1.29,2.33,2.33,0,0,0,.84-1.79v-1.7a2.36,2.36,0,0,0-.43-1.36V16.3a7.61,7.61,0,0,0-7.6-7.6H31.67a7.61,7.61,0,0,0-7.6,7.6v2.39a2.36,2.36,0,0,0-.43,1.36v1.7a2.33,2.33,0,0,0,.84,1.79A9.71,9.71,0,0,0,25,24.83a15.25,15.25,0,0,0,1.63,3.08,15.53,15.53,0,0,0,1.12,1.41,2.08,2.08,0,0,0-.83,1Zm.07-8,0-.2-.48-.31a.48.48,0,0,1-.22-.41v-.8a.49.49,0,0,1,.49-.49h.2v-.87a.47.47,0,0,1,.27-.43,7.94,7.94,0,0,1,3.38-.9A3.63,3.63,0,0,1,33.29,19a4.05,4.05,0,0,0,3,1.35A4.57,4.57,0,0,0,38.19,20a.52.52,0,0,1,.47,0,.46.46,0,0,1,.15.16h.27a.49.49,0,0,1,.49.49v.8a.5.5,0,0,1-.22.41l-.48.31,0,.2a10.17,10.17,0,0,1-1.75,4c-1.19,1.73-2.31,2.5-2.89,2.5H31.6c-.58,0-1.7-.77-2.89-2.5a10.17,10.17,0,0,1-1.75-4Z"/><path class="cls-2" d="M53.71,30.32H49a2.45,2.45,0,0,0-2.45,2.45,13.45,13.45,0,0,1-26.9,0,2.45,2.45,0,0,0-2.45-2.45H12.07a2.45,2.45,0,0,0,0,4.89H14.9a18.24,18.24,0,0,0,3.3,8.28l-2.32,2.33a2.44,2.44,0,0,0,3.45,3.46L21.57,47a18.28,18.28,0,0,0,8.88,3.88v3.72a2.45,2.45,0,0,0,4.89,0V51a18.22,18.22,0,0,0,9-3.76l2.07,2.07a2.46,2.46,0,0,0,3.46,0,2.44,2.44,0,0,0,0-3.46L47.8,43.7a18.22,18.22,0,0,0,3.46-8.49h2.45a2.45,2.45,0,1,0,0-4.89Z"/><circle class="cls-3" cx="32.89" cy="32.89" r="31.42"/></g></g></svg>