<svg xmlns="http://www.w3.org/2000/svg" viewBox="0 0 22.3 22.3"><defs><style>.cls-1{fill:#fff;}</style></defs><title>insta-icon-white</title><g id="Camada_2" data-name="Camada 2"><g id="layout"><path class="cls-1" d="M11.38,8.52A2.67,2.67,0,1,0,14,11.18,2.66,2.66,0,0,0,11.38,8.52Z"/><path class="cls-1" d="M13.76,4.36H8.54A4.18,4.18,0,0,0,4.36,8.54v5.22A4.19,4.19,0,0,0,8.54,18h5.22A4.2,4.2,0,0,0,18,13.76V8.54A4.19,4.19,0,0,0,13.76,4.36ZM11.38,15.61a4.43,4.43,0,1,1,4.43-4.43A4.43,4.43,0,0,1,11.38,15.61Zm4.12-7.8a1.13,1.13,0,1,1,1.13-1.13A1.14,1.14,0,0,1,15.5,7.81Z"/><path class="cls-1" d="M17.72,0H4.58A4.58,4.58,0,0,0,0,4.58V17.72A4.58,4.58,0,0,0,4.58,22.3H17.72a4.58,4.58,0,0,0,4.58-4.58V4.58A4.58,4.58,0,0,0,17.72,0Zm1.84,14.38a5.18,5.18,0,0,1-5.18,5.18H7.92a5.18,5.18,0,0,1-5.18-5.18V7.92A5.18,5.18,0,0,1,7.92,2.74h6.46a5.18,5.18,0,0,1,5.18,5.18Z"/></g></g></svg>