<svg xmlns="http://www.w3.org/2000/svg" viewBox="0 0 206.27 83.86"><defs><style>.cls-1{fill:#284270;}.cls-2{fill:#ae9743;}.cls-3{fill:#808184;}.cls-4{fill:none;stroke:#ae9743;stroke-linecap:round;stroke-linejoin:round;stroke-width:1.65px;}</style></defs><title>logo</title><g id="Camada_2" data-name="Camada 2"><g id="layout"><path class="cls-1" d="M93.13,30V26.87h3.76V4.15H93.13V1h7.39V4.15h0V26.87h10.11V19.73h3.51V30Z"/><path class="cls-1" d="M116.31,30V28.17h0V12.55h-3.39V9.41h6.82V26.87H123V30ZM119,4.47a2,2,0,0,1-1.59.7,2,2,0,0,1-1.59-.7,2,2,0,0,1-.69-1.59,2.24,2.24,0,0,1,.69-1.63,2,2,0,0,1,1.59-.69,2,2,0,0,1,1.59.69,2,2,0,0,1,.7,1.59A2.2,2.2,0,0,1,119,4.47Z"/><path class="cls-1" d="M138.87,28.91a8.85,8.85,0,0,1-5.71,1.71,8.63,8.63,0,0,1-3.59-.73,6.24,6.24,0,0,1-1.72-1.15V30h-3.18V22h3.18a8.13,8.13,0,0,0,.43,2.7,4.56,4.56,0,0,0,1.08,1.63,6.38,6.38,0,0,0,7.31.36,2.86,2.86,0,0,0,1.26-2.32,3.11,3.11,0,0,0-.22-1.25,2.13,2.13,0,0,0-.68-.79A10.52,10.52,0,0,0,132.87,21a12.59,12.59,0,0,1-5.3-1.87,4.88,4.88,0,0,1-1.84-4.2,5.45,5.45,0,0,1,2-4.45,7,7,0,0,1,4.73-1.63,8,8,0,0,1,2.53.39,6.15,6.15,0,0,1,2.17,1.24V10h3.1v6.81H137.2a7.68,7.68,0,0,0-.41-2.26,3.62,3.62,0,0,0-1-1.41,4.72,4.72,0,0,0-3.3-1.18,3.83,3.83,0,0,0-2.66.89,2.74,2.74,0,0,0-.89,2,2.48,2.48,0,0,0,.2,1.11,2.11,2.11,0,0,0,.57.69,11.5,11.5,0,0,0,3.88,1.14,25.85,25.85,0,0,1,3.67.94,6,6,0,0,1,2.32,1.35,5.48,5.48,0,0,1,1.51,4.08A5.71,5.71,0,0,1,138.87,28.91Z"/><path class="cls-1" d="M160.51,27.23a10.12,10.12,0,0,1-7.63,3.06,8.89,8.89,0,0,1-4.08-1,6.58,6.58,0,0,1-1.33-.81,11.77,11.77,0,0,1-1.24-1.14V30H142.8V4.15h-3.51V1h6.94V12a7.32,7.32,0,0,1,2.53-2,9.3,9.3,0,0,1,4.32-1.1,10,10,0,0,1,7.43,3,10.14,10.14,0,0,1,2.89,7.5A10.88,10.88,0,0,1,160.51,27.23ZM158,14a6.36,6.36,0,0,0-4.9-2.08,6.47,6.47,0,0,0-4.89,2.12,7.64,7.64,0,0,0-2,5.46,9.36,9.36,0,0,0,.51,3.23,6.75,6.75,0,0,0,1.49,2.4A6.37,6.37,0,0,0,153,27.23a6.44,6.44,0,0,0,5-2.16,8.21,8.21,0,0,0,1.91-5.63A7.9,7.9,0,0,0,158,14Z"/><path class="cls-1" d="M182.47,27.44a10.16,10.16,0,0,1-14.69,0,10.77,10.77,0,0,1-2.93-7.71A10.84,10.84,0,0,1,167.78,12a10.16,10.16,0,0,1,14.69,0,10.84,10.84,0,0,1,2.93,7.71A10.77,10.77,0,0,1,182.47,27.44ZM180,14.22a6.71,6.71,0,0,0-9.79,0,8,8,0,0,0-1.92,5.51,8,8,0,0,0,1.92,5.51,6.71,6.71,0,0,0,9.79,0,8,8,0,0,0,1.92-5.51A8,8,0,0,0,180,14.22Z"/><path class="cls-1" d="M199.52,30V28a12.1,12.1,0,0,1-1.23.79c-.4.24-.84.46-1.3.68a9.46,9.46,0,0,1-3.79.85,6.47,6.47,0,0,1-4.78-1.87,6.31,6.31,0,0,1-1.87-4.49,6.07,6.07,0,0,1,2.2-4.77,8.53,8.53,0,0,1,5.67-1.84,12.53,12.53,0,0,1,2.85.37c.38.11.76.22,1.13.35a10.2,10.2,0,0,1,1.12.46V15a2.71,2.71,0,0,0-1.1-2.49,6.16,6.16,0,0,0-3.39-.82,6.23,6.23,0,0,0-1.28.15c-.48.09-.94.21-1.39.34l-1.22.39-.8.26-1-2.44c.79-.33,1.48-.58,2.06-.76s1.21-.34,1.88-.51a7.78,7.78,0,0,1,1.81-.24,14,14,0,0,1,3.27.34,6.62,6.62,0,0,1,2.44,1.13A5.43,5.43,0,0,1,202.94,15V26.87h3.23V30Zm0-8.36a21,21,0,0,0-2.08-1,8.33,8.33,0,0,0-2.65-.45,5,5,0,0,0-3.55,1.14A3.52,3.52,0,0,0,190,24.09a3.23,3.23,0,0,0,1,2.29,3.64,3.64,0,0,0,2.69,1,7.25,7.25,0,0,0,3.19-.86,9.77,9.77,0,0,0,2.65-1.92Z"/><path class="cls-2" d="M113.86,46.39a7.44,7.44,0,0,1-1.92,2.77,8.34,8.34,0,0,1-3,1.73,11.41,11.41,0,0,1-3.65.55h-4.54V61.78H93v-4h3.33V38.38H93v-4H105a13.1,13.1,0,0,1,3.86.54,8.18,8.18,0,0,1,3.08,1.71,7.3,7.3,0,0,1,2,2.75,9.75,9.75,0,0,1,.62,3.57A9.55,9.55,0,0,1,113.86,46.39Zm-4.14-5.56a3.44,3.44,0,0,0-.85-1.35,4,4,0,0,0-1.58-.81,10,10,0,0,0-2.7-.29h-3.8v9h3.8a9.52,9.52,0,0,0,2.53-.29,4.88,4.88,0,0,0,1.68-.82,3.27,3.27,0,0,0,.92-1.23,4.9,4.9,0,0,0,.33-1.94A6.65,6.65,0,0,0,109.72,40.83Z"/><path class="cls-2" d="M125.61,61.78V60.45a12.21,12.21,0,0,1-2.45,1.15,8.5,8.5,0,0,1-2.68.44,6.44,6.44,0,0,1-4.73-1.88,6.23,6.23,0,0,1,.34-9.23,6.56,6.56,0,0,1,2.45-1.39,10.46,10.46,0,0,1,3-.42,10.83,10.83,0,0,1,2.73.37l.63.16q.33.1.66.24V47.61a2.7,2.7,0,0,0-.2-1.15,1.68,1.68,0,0,0-.54-.63,3.61,3.61,0,0,0-1.1-.46,7,7,0,0,0-1.63-.16,6,6,0,0,0-1.11.12,12.61,12.61,0,0,0-1.27.34c-.43.13-.84.27-1.22.4l-1,.35-1.33-3.28c.87-.35,1.6-.62,2.22-.83s1.27-.4,2-.58a7.58,7.58,0,0,1,1.81-.25,12.3,12.3,0,0,1,3.08.35,7.28,7.28,0,0,1,2.45,1.09,5.12,5.12,0,0,1,1.63,2,6.64,6.64,0,0,1,.51,2.66V57.76h2.92v4Zm0-7.82a10.3,10.3,0,0,0-1.51-.67,6.16,6.16,0,0,0-2.18-.37,5.28,5.28,0,0,0-1.72.24,2.9,2.9,0,0,0-1.09.65,2.61,2.61,0,0,0-.92,2,2.34,2.34,0,0,0,.7,1.66,2.4,2.4,0,0,0,.81.52,3.53,3.53,0,0,0,1.22.18,5.82,5.82,0,0,0,2.62-.7A7.79,7.79,0,0,0,125.61,56Z"/><path class="cls-2" d="M135.83,61.78l-.07-1.66V46h-3.07V42H140v15.8h3v4Zm3.43-23.26a2.66,2.66,0,0,1-4.54-1.88,2.61,2.61,0,0,1,.78-1.92A2.66,2.66,0,0,1,140,36.6,2.58,2.58,0,0,1,139.26,38.52Z"/><path class="cls-2" d="M160.56,61.78l-1.33-1.66-4.32-5.28-2.18,2.92h2.18v4H144.5l2.77-3.58,5.06-6.61L147.82,46h-2.88V42h8.86v4H153l1.84,2.33L156.72,46h-.66V42h8.78v4h-3l-4.39,5.61,5,6.17h2.77v4Z"/><path class="cls-2" d="M178.47,61.78V60.45A12.55,12.55,0,0,1,176,61.6a8.46,8.46,0,0,1-2.68.44,6.41,6.41,0,0,1-4.72-1.88,6.24,6.24,0,0,1,.33-9.23,6.52,6.52,0,0,1,2.46-1.39,10.39,10.39,0,0,1,3-.42,10.83,10.83,0,0,1,2.73.37l.63.16c.22.07.45.15.67.24V47.61a2.54,2.54,0,0,0-.21-1.15,1.57,1.57,0,0,0-.53-.63,3.78,3.78,0,0,0-1.11-.46,6.81,6.81,0,0,0-1.62-.16,6,6,0,0,0-1.11.12c-.42.09-.84.2-1.28.34s-.83.27-1.21.4l-1,.35-1.33-3.28c.86-.35,1.6-.62,2.21-.83s1.27-.4,2-.58a7.65,7.65,0,0,1,1.81-.25,12.24,12.24,0,0,1,3.08.35,7.33,7.33,0,0,1,2.46,1.09,5,5,0,0,1,1.62,2,6.48,6.48,0,0,1,.52,2.66V57.76h2.92v4Zm4-24.81c-.18.49-.36.91-.53,1.26a5.83,5.83,0,0,1-.54.88,3.52,3.52,0,0,1-.57.63,3.93,3.93,0,0,1-1.22.79,3.5,3.5,0,0,1-1.4.28,5.48,5.48,0,0,1-1.72-.28,11.05,11.05,0,0,1-1.79-.75,8.18,8.18,0,0,0-1.31-.61,2.68,2.68,0,0,0-.72-.17.82.82,0,0,0-.52.15c-.05.05-.13.16-.26.33a10,10,0,0,0-.62,1.29h-3.4a25.78,25.78,0,0,1,1.14-3,4.41,4.41,0,0,1,1.11-1.52,3.83,3.83,0,0,1,2.62-1.07,5.78,5.78,0,0,1,1.72.28,9.77,9.77,0,0,1,1.75.76,9.71,9.71,0,0,0,1.31.61,2.69,2.69,0,0,0,.76.16.8.8,0,0,0,.52-.18,1.08,1.08,0,0,0,.24-.28,8.54,8.54,0,0,0,.57-1.31h3.47C182.86,35.89,182.66,36.48,182.47,37Zm-4,17a10.39,10.39,0,0,0-1.52-.67,6.12,6.12,0,0,0-2.18-.37,5.21,5.21,0,0,0-1.71.24,2.82,2.82,0,0,0-1.09.65,2.58,2.58,0,0,0-.92,2,2.34,2.34,0,0,0,.7,1.66,2.4,2.4,0,0,0,.81.52,3.53,3.53,0,0,0,1.22.18,5.88,5.88,0,0,0,2.62-.7A7.79,7.79,0,0,0,178.47,56Z"/><path class="cls-2" d="M203.46,59.27a9.81,9.81,0,0,1-14.18,0,11.14,11.14,0,0,1,0-14.77,9.83,9.83,0,0,1,14.18,0,11.11,11.11,0,0,1,0,14.77Zm-3.1-12a5.43,5.43,0,0,0-8,0,6.6,6.6,0,0,0-1.59,4.58,6.62,6.62,0,0,0,1.59,4.58,5.45,5.45,0,0,0,8,0A6.62,6.62,0,0,0,202,51.89,6.6,6.6,0,0,0,200.36,47.31Z"/><path class="cls-3" d="M93.39,69.64H98v1.69h-3v2.94h2.82v1.58H95.05V79h3v1.69H93.39Z"/><path class="cls-3" d="M102.43,80.64H100.9v-8.3h1.34V73a2.76,2.76,0,0,1,.71-.55,2.34,2.34,0,0,1,1.12-.23,1.59,1.59,0,0,1,1.28.48,2.48,2.48,0,0,1,.41,1.6v6.34h-1.54v-6a1.11,1.11,0,0,0-.19-.75.81.81,0,0,0-.59-.2,1.13,1.13,0,0,0-.56.14,1.2,1.2,0,0,0-.45.45Z"/><path class="cls-3" d="M113.54,75.45a2.5,2.5,0,0,1-.66,1.91,2.54,2.54,0,0,1-1.78.62,2.79,2.79,0,0,1-1.29-.29,1.17,1.17,0,0,0-.15.16.48.48,0,0,0-.06.24v.19c0,.27.16.4.46.4h1.71a2.21,2.21,0,0,1,1.6.56,2.11,2.11,0,0,1,.57,1.58v.54a2.94,2.94,0,0,1-.13.93,1.51,1.51,0,0,1-.45.68,2.07,2.07,0,0,1-.88.42,5.36,5.36,0,0,1-1.39.15,4.52,4.52,0,0,1-2.17-.4,1.37,1.37,0,0,1-.7-1.28v-.42a1.78,1.78,0,0,1,.24-1,1.45,1.45,0,0,1,.68-.56,1.26,1.26,0,0,1-.47-.36,1,1,0,0,1-.2-.68v-.32a1.22,1.22,0,0,1,.25-.78,1.64,1.64,0,0,1,.59-.47,2.56,2.56,0,0,1-.61-1.86v-.71a2.24,2.24,0,0,1,2.4-2.52,2.48,2.48,0,0,1,1.47.4,1.48,1.48,0,0,0,.29-.91v-.12a.49.49,0,0,0,0-.12H114v.12a.49.49,0,0,1,0,.12,1.7,1.7,0,0,1-.83,1.51,2.48,2.48,0,0,1,.28.66,3.72,3.72,0,0,1,.09.86ZM110.21,80a1,1,0,0,0-.55.45,1.59,1.59,0,0,0-.15.72v.26a1.44,1.44,0,0,0,.06.45.63.63,0,0,0,.25.31,1.21,1.21,0,0,0,.48.17,4.16,4.16,0,0,0,.79.06,1.91,1.91,0,0,0,1.2-.28.94.94,0,0,0,.32-.76v-.21a1.47,1.47,0,0,0-.23-.85,1,1,0,0,0-.86-.32Zm1.85-5.37a1.63,1.63,0,0,0-.22-.93.87.87,0,0,0-.74-.3.76.76,0,0,0-.69.31,1.7,1.7,0,0,0-.21.94v.83c0,.81.3,1.22.9,1.22a.94.94,0,0,0,.7-.25,1.1,1.1,0,0,0,.26-.82Z"/><path class="cls-3" d="M117.77,76.64V78.3a1,1,0,0,0,.29.79,1,1,0,0,0,.6.22,1.11,1.11,0,0,0,.52-.11.75.75,0,0,0,.31-.27,1.07,1.07,0,0,0,.14-.38,3.19,3.19,0,0,0,0-.45c0-.11,0-.22,0-.34s0-.23-.05-.34H121a1.59,1.59,0,0,1,.07.38c0,.14,0,.28,0,.44a3.67,3.67,0,0,1-.11.94,2.13,2.13,0,0,1-.38.82,1.9,1.9,0,0,1-.73.56,2.71,2.71,0,0,1-1.14.2,2.52,2.52,0,0,1-1.75-.59,2.32,2.32,0,0,1-.67-1.83V74.63a2.34,2.34,0,0,1,.64-1.82,2.53,2.53,0,0,1,1.78-.59,2.21,2.21,0,0,1,1.84.68,3.16,3.16,0,0,1,.54,2v.5c0,.28,0,.53,0,.74s0,.38,0,.5Zm0-1h1.88c0-.07,0-.15,0-.26v-.55a1.66,1.66,0,0,0-.19-.89.83.83,0,0,0-.75-.3,1,1,0,0,0-.71.26,1.14,1.14,0,0,0-.25.78Z"/><path class="cls-3" d="M125.51,80.64H124v-8.3h1.33V73a2.76,2.76,0,0,1,.71-.55,2.36,2.36,0,0,1,1.12-.23,1.62,1.62,0,0,1,1.29.48,2.48,2.48,0,0,1,.4,1.6v6.34H127.3v-6a1.11,1.11,0,0,0-.19-.75.78.78,0,0,0-.58-.2,1.11,1.11,0,0,0-.56.14,1.15,1.15,0,0,0-.46.45Z"/><path class="cls-3" d="M133.32,80.64H131.8v-11h1.52v3.22a1.59,1.59,0,0,1,.66-.47,2.39,2.39,0,0,1,1-.17,1.62,1.62,0,0,1,1.29.48,2.48,2.48,0,0,1,.4,1.6v6.34h-1.54v-6a1,1,0,0,0-.2-.76.81.81,0,0,0-.57-.19,1.11,1.11,0,0,0-.56.14,1.15,1.15,0,0,0-.46.45Z"/><path class="cls-3" d="M145.1,80.46a.94.94,0,0,1-.39.23,1.77,1.77,0,0,1-.52.07,1.16,1.16,0,0,1-1.25-.81,1.74,1.74,0,0,1-.22.27,1.17,1.17,0,0,1-.34.26,1.8,1.8,0,0,1-.5.19,2.34,2.34,0,0,1-.69.08,1.81,1.81,0,0,1-1.28-.44,1.79,1.79,0,0,1-.48-1.39V78.1a5.21,5.21,0,0,1,0-.75,1.73,1.73,0,0,1,.18-.53,1.28,1.28,0,0,1,.32-.37,2.64,2.64,0,0,1,.48-.28,10,10,0,0,1,1.13-.39,7.48,7.48,0,0,0,1.13-.37v-.85a1,1,0,0,0-.2-.69.94.94,0,0,0-.71-.21.81.81,0,0,0-.72.26,1.19,1.19,0,0,0-.18.7,4.35,4.35,0,0,0,.07.75h-1.36c0-.13,0-.26-.05-.4s0-.29,0-.48a3.83,3.83,0,0,1,.11-.93,1.78,1.78,0,0,1,.38-.72,1.68,1.68,0,0,1,.7-.46,3.1,3.1,0,0,1,1.09-.16,4.25,4.25,0,0,1,1.17.14,1.62,1.62,0,0,1,1.13,1.21,4.21,4.21,0,0,1,.11,1.06v4.51a.49.49,0,0,0,.12.36.42.42,0,0,0,.29.11.49.49,0,0,0,.25,0,.66.66,0,0,0,.2-.14Zm-3.35-1.08a1,1,0,0,0,.56-.16,2.94,2.94,0,0,0,.41-.33V76.58a4.48,4.48,0,0,1-.5.15,2.26,2.26,0,0,0-.58.21,1.48,1.48,0,0,0-.49.37,1,1,0,0,0-.21.65v.52a1,1,0,0,0,.22.69A.84.84,0,0,0,141.75,79.38Z"/><path class="cls-3" d="M149,73.16a3.21,3.21,0,0,1,.75-.68,1.84,1.84,0,0,1,1-.26,1.22,1.22,0,0,1,.67.17,1.24,1.24,0,0,1,.44.44,2,2,0,0,1,.25.64,3.94,3.94,0,0,1,.07.77,5.08,5.08,0,0,1-.15,1.27h-1.35a3,3,0,0,0,.11-.5,3.64,3.64,0,0,0,0-.45,1.31,1.31,0,0,0-.13-.59.52.52,0,0,0-.51-.27.93.93,0,0,0-.54.2,2,2,0,0,0-.43.48v6.26h-1.52v-8.3H149Z"/><path class="cls-3" d="M154.84,69.64h1.54v1.69h-1.54Zm1.53,11h-1.53v-8.3h1.53Z"/><path class="cls-3" d="M164.87,80.46a.94.94,0,0,1-.39.23,1.81,1.81,0,0,1-.52.07,1.16,1.16,0,0,1-1.25-.81,1.74,1.74,0,0,1-.22.27,1.33,1.33,0,0,1-.34.26,1.93,1.93,0,0,1-.5.19,2.34,2.34,0,0,1-.69.08,1.81,1.81,0,0,1-1.28-.44,1.79,1.79,0,0,1-.48-1.39V78.1a5.21,5.21,0,0,1,.05-.75,1.73,1.73,0,0,1,.18-.53,1.28,1.28,0,0,1,.32-.37,2.92,2.92,0,0,1,.47-.28,9.53,9.53,0,0,1,1.14-.39,7.87,7.87,0,0,0,1.13-.37v-.85a1,1,0,0,0-.2-.69.94.94,0,0,0-.71-.21.81.81,0,0,0-.72.26,1.19,1.19,0,0,0-.18.7,3.54,3.54,0,0,0,.07.75h-1.36c0-.13,0-.26,0-.4s0-.29,0-.48a3.83,3.83,0,0,1,.11-.93,1.78,1.78,0,0,1,.38-.72,1.68,1.68,0,0,1,.7-.46,3.1,3.1,0,0,1,1.09-.16,4.25,4.25,0,0,1,1.17.14,1.62,1.62,0,0,1,1.13,1.21,4.73,4.73,0,0,1,.11,1.06v4.51a.49.49,0,0,0,.12.36.41.41,0,0,0,.28.11.5.5,0,0,0,.26,0,.66.66,0,0,0,.2-.14Zm-3.36-1.08a1.08,1.08,0,0,0,.57-.16,3.68,3.68,0,0,0,.41-.33V76.58a4.48,4.48,0,0,1-.5.15,2.13,2.13,0,0,0-.58.21,1.48,1.48,0,0,0-.49.37,1,1,0,0,0-.21.65v.52a.91.91,0,0,0,.22.69A.81.81,0,0,0,161.51,79.38Z"/><path class="cls-4" d="M40.29,38V10.75H30.4V14H37V30.1L18.65,11.75c5.51-4.94,14.18-7.64,21.64-7.64V.82H10.68V4.11H24.19a33.29,33.29,0,0,0-9,6.45L14,11.72Z"/><path class="cls-4" d="M38,40.26H10.68v-9.8H14V37H30.1L11.75,18.63c-4.94,5.5-7.64,14.18-7.64,21.63H.82V.82H4.11V24.17a33.29,33.29,0,0,1,6.45-9.05L11.72,14Z"/><path class="cls-4" d="M43.52,38V10.75h9.89V14h-6.6V30.1L65.15,11.75C59.65,6.81,51,4.11,43.52,4.11V.82H73.13V4.11H59.61a33.19,33.19,0,0,1,9.06,6.45l1.16,1.16Z"/><path class="cls-4" d="M45.78,40.26H73.13v-9.8H69.84V37H53.71L72.05,18.63c5,5.5,7.65,14.18,7.65,21.63H83V.82H79.7V24.17a33.51,33.51,0,0,0-6.45-9.05L72.08,14Z"/><path class="cls-4" d="M40.29,45.83V73.12H30.4V69.83H37V53.76L18.65,72.11c5.51,4.94,14.18,7.64,21.64,7.64V83H10.68V79.75H24.19a33.29,33.29,0,0,1-9-6.45L14,72.14Z"/><path class="cls-4" d="M38,43.6H10.68v9.8H14V46.88H30.1L11.75,65.23C6.81,59.73,4.11,51.05,4.11,43.6H.82V83H4.11V59.69a33.29,33.29,0,0,0,6.45,9l1.16,1.17Z"/><path class="cls-4" d="M43.52,45.83V73.12h9.89V69.83h-6.6V53.76L65.15,72.11c-5.5,4.94-14.18,7.64-21.63,7.64V83H73.13V79.75H59.61a33.19,33.19,0,0,0,9.06-6.45l1.16-1.16Z"/><path class="cls-4" d="M45.78,43.6H73.13v9.8H69.84V46.88H53.71L72.05,65.23c5-5.5,7.65-14.18,7.65-21.63H83V83H79.7V59.69a33.51,33.51,0,0,1-6.45,9l-1.17,1.17Z"/></g></g></svg>