<svg xmlns="http://www.w3.org/2000/svg" viewBox="0 0 205.94 83.22"><defs><style>.cls-1{fill:#fff;}.cls-2{fill:none;stroke:#fff;stroke-miterlimit:10;}</style></defs><title>logo-branco</title><g id="Camada_2" data-name="Camada 2"><g id="layout"><path class="cls-1" d="M92.81,29.68V26.54h3.75V3.82H92.81V.68h7.38V3.82h0V26.54h10.12V19.4h3.51V29.68Z"/><path class="cls-1" d="M116,29.68V27.85h0V12.23h-3.39V9.08h6.81V26.54h3.31v3.14Zm2.69-25.53a2.18,2.18,0,0,1-3.18,0,2,2,0,0,1-.7-1.59,2.2,2.2,0,0,1,.7-1.63,2.16,2.16,0,0,1,3.18,0,2,2,0,0,1,.69,1.59A2.24,2.24,0,0,1,118.68,4.15Z"/><path class="cls-1" d="M138.54,28.58a8.82,8.82,0,0,1-5.71,1.72,8.67,8.67,0,0,1-3.59-.74,6.39,6.39,0,0,1-1.71-1.14v1.26h-3.18v-8h3.18a8.06,8.06,0,0,0,.43,2.69A4.47,4.47,0,0,0,129,26a6.34,6.34,0,0,0,7.3.37,2.95,2.95,0,0,0,1-3.57,2,2,0,0,0-.67-.79,10.41,10.41,0,0,0-4.16-1.31,12.53,12.53,0,0,1-5.3-1.88,4.83,4.83,0,0,1-1.84-4.2,5.43,5.43,0,0,1,2-4.44,7,7,0,0,1,4.73-1.64,8,8,0,0,1,2.53.39,6,6,0,0,1,2.16,1.25V9.66h3.1v6.81h-3.06a7.44,7.44,0,0,0-.41-2.27,3.46,3.46,0,0,0-1-1.4,4.73,4.73,0,0,0-3.3-1.19,3.77,3.77,0,0,0-2.65.9,2.72,2.72,0,0,0-.9,2,2.42,2.42,0,0,0,.21,1.1,1.92,1.92,0,0,0,.57.7,11.92,11.92,0,0,0,3.87,1.14,24.25,24.25,0,0,1,3.67.94,6.14,6.14,0,0,1,2.33,1.34,5.55,5.55,0,0,1,1.51,4.08A5.68,5.68,0,0,1,138.54,28.58Z"/><path class="cls-1" d="M160.18,26.91A10.1,10.1,0,0,1,152.55,30a9.08,9.08,0,0,1-4.08-1,7,7,0,0,1-1.32-.82A10,10,0,0,1,145.9,27v2.65h-3.42V3.82H139V.68h6.93v11a7.6,7.6,0,0,1,2.53-2,9.27,9.27,0,0,1,4.33-1.11,10,10,0,0,1,7.42,3,10.16,10.16,0,0,1,2.9,7.51A10.9,10.9,0,0,1,160.18,26.91Zm-2.49-13.22a6.39,6.39,0,0,0-4.89-2.08,6.49,6.49,0,0,0-4.9,2.12,7.68,7.68,0,0,0-2,5.47,9.3,9.3,0,0,0,.51,3.22,6.85,6.85,0,0,0,1.49,2.41,6.76,6.76,0,0,0,9.83-.08,8.16,8.16,0,0,0,1.92-5.63A7.89,7.89,0,0,0,157.69,13.69Z"/><path class="cls-1" d="M182.14,27.11a10.13,10.13,0,0,1-14.68,0,10.75,10.75,0,0,1-2.94-7.71,10.88,10.88,0,0,1,2.94-7.71,10.15,10.15,0,0,1,14.68,0,10.88,10.88,0,0,1,2.94,7.71A10.75,10.75,0,0,1,182.14,27.11ZM179.7,13.9a6.71,6.71,0,0,0-9.79,0A8,8,0,0,0,168,19.4a8,8,0,0,0,1.92,5.51,6.71,6.71,0,0,0,9.79,0,8,8,0,0,0,1.91-5.51A8,8,0,0,0,179.7,13.9Z"/><path class="cls-1" d="M199.19,29.68v-2a11.09,11.09,0,0,1-1.22.8c-.41.23-.84.46-1.31.67a9.44,9.44,0,0,1-3.79.86,6.47,6.47,0,0,1-4.77-1.88,6.3,6.3,0,0,1-1.88-4.48,6.1,6.1,0,0,1,2.2-4.78A8.58,8.58,0,0,1,194.09,17a12.54,12.54,0,0,1,2.86.37c.38.1.75.22,1.12.34a8.11,8.11,0,0,1,1.12.47V14.67a2.71,2.71,0,0,0-1.1-2.49,6.19,6.19,0,0,0-3.38-.81,7.12,7.12,0,0,0-1.29.14c-.47.1-.94.21-1.39.35s-.85.26-1.22.39l-.79.26-1-2.45c.78-.32,1.47-.57,2.06-.75S192.31,9,193,8.8a7.91,7.91,0,0,1,1.82-.25,13.92,13.92,0,0,1,3.26.35A6.65,6.65,0,0,1,200.5,10a5.46,5.46,0,0,1,2.12,4.65V26.54h3.22v3.14Zm0-8.36a21.09,21.09,0,0,0-2.08-1,8.29,8.29,0,0,0-2.65-.45A5,5,0,0,0,190.91,21a3.53,3.53,0,0,0-1.22,2.73,3.23,3.23,0,0,0,1,2.28,3.6,3.6,0,0,0,2.69,1,7.15,7.15,0,0,0,3.18-.85,10,10,0,0,0,2.65-1.92Z"/><path class="cls-1" d="M113.53,46.06a7.44,7.44,0,0,1-1.92,2.77,8.09,8.09,0,0,1-3,1.74,11.52,11.52,0,0,1-3.66.55h-4.54V61.46H92.71v-4H96V38.05H92.71V34h11.92a13.39,13.39,0,0,1,3.86.53,8.24,8.24,0,0,1,3.09,1.72,7.3,7.3,0,0,1,2,2.75,9.49,9.49,0,0,1,.63,3.56A9.31,9.31,0,0,1,113.53,46.06Zm-4.13-5.55a3.56,3.56,0,0,0-.85-1.35,3.71,3.71,0,0,0-1.59-.81,9.93,9.93,0,0,0-2.69-.3h-3.81V47.1h3.81a9,9,0,0,0,2.52-.3,5.06,5.06,0,0,0,1.68-.81,3.15,3.15,0,0,0,.93-1.24,4.87,4.87,0,0,0,.33-1.94A6.55,6.55,0,0,0,109.4,40.51Z"/><path class="cls-1" d="M125.29,61.46V60.13a11.73,11.73,0,0,1-2.46,1.14,8.14,8.14,0,0,1-2.67.45,6.41,6.41,0,0,1-4.73-1.89,5.91,5.91,0,0,1-1.88-4.46,6,6,0,0,1,2.21-4.77,6.44,6.44,0,0,1,2.46-1.38,10.43,10.43,0,0,1,3-.43,11.38,11.38,0,0,1,2.74.37l.62.17a4.49,4.49,0,0,1,.67.24V47.28a2.52,2.52,0,0,0-.21-1.14,1.57,1.57,0,0,0-.53-.63,3.53,3.53,0,0,0-1.11-.46,6.76,6.76,0,0,0-1.62-.17,5.34,5.34,0,0,0-1.11.13c-.42.09-.84.2-1.27.33s-.84.27-1.22.41l-1,.35-1.33-3.29c.86-.34,1.6-.62,2.22-.83s1.26-.4,2-.57a7.71,7.71,0,0,1,1.81-.26,12.72,12.72,0,0,1,3.08.35,7.75,7.75,0,0,1,2.46,1.09,5.15,5.15,0,0,1,1.62,2,6.51,6.51,0,0,1,.52,2.66V57.43h2.92v4Zm0-7.83a10.94,10.94,0,0,0-1.52-.66,6.1,6.1,0,0,0-2.17-.37,5.24,5.24,0,0,0-1.72.24,2.81,2.81,0,0,0-1.09.64,2.59,2.59,0,0,0-.92,2,2.37,2.37,0,0,0,.7,1.67,2.24,2.24,0,0,0,.81.51,3.29,3.29,0,0,0,1.22.19,6,6,0,0,0,2.62-.7,8,8,0,0,0,2.07-1.48Z"/><path class="cls-1" d="M135.51,61.46l-.08-1.66V45.66h-3.06v-4h7.34v15.8h3v4Zm3.43-23.26a2.69,2.69,0,0,1-3.77,0,2.75,2.75,0,0,1-.77-1.88,2.61,2.61,0,0,1,.77-1.92,2.67,2.67,0,0,1,3.77,0,2.69,2.69,0,0,1,.77,1.88A2.6,2.6,0,0,1,138.94,38.2Z"/><path class="cls-1" d="M160.24,61.46l-1.33-1.66-4.32-5.28-2.18,2.91h2.18v4H144.18L147,57.88,152,51.27l-4.5-5.61h-2.88v-4h8.86v4h-.78L154.55,48l1.85-2.32h-.67v-4h8.79v4h-3l-4.4,5.61,5,6.16H165v4Z"/><path class="cls-1" d="M178.14,61.46V60.13a11.65,11.65,0,0,1-2.45,1.14,8.24,8.24,0,0,1-2.68.45,6.41,6.41,0,0,1-4.73-1.89,6.23,6.23,0,0,1,.34-9.23,6.4,6.4,0,0,1,2.45-1.38,10.5,10.5,0,0,1,3.05-.43,11.3,11.3,0,0,1,2.73.37l.63.17a4.38,4.38,0,0,1,.66.24V47.28a2.68,2.68,0,0,0-.2-1.14,1.59,1.59,0,0,0-.54-.63,3.38,3.38,0,0,0-1.1-.46,6.91,6.91,0,0,0-1.63-.17,5.34,5.34,0,0,0-1.11.13c-.41.09-.84.2-1.27.33s-.84.27-1.22.41l-1,.35-1.33-3.29c.87-.34,1.6-.62,2.22-.83s1.27-.4,2-.57a7.71,7.71,0,0,1,1.81-.26,12.72,12.72,0,0,1,3.08.35,7.69,7.69,0,0,1,2.45,1.09,5.27,5.27,0,0,1,1.63,2,6.68,6.68,0,0,1,.51,2.66V57.43h2.92v4Zm4-24.81c-.19.49-.37.91-.54,1.25a6,6,0,0,1-.53.89,4.48,4.48,0,0,1-.57.63,4.12,4.12,0,0,1-1.22.79,3.55,3.55,0,0,1-1.41.28,5.46,5.46,0,0,1-1.71-.28,10.77,10.77,0,0,1-1.79-.76,11.15,11.15,0,0,0-1.31-.61,2.71,2.71,0,0,0-.72-.16.79.79,0,0,0-.52.15,2.87,2.87,0,0,0-.26.33,9.51,9.51,0,0,0-.63,1.29h-3.39a26.82,26.82,0,0,1,1.14-3,4.36,4.36,0,0,1,1.11-1.51,3.83,3.83,0,0,1,2.62-1.07,5.48,5.48,0,0,1,1.72.28,10,10,0,0,1,1.75.75,8.18,8.18,0,0,0,1.31.61,2.72,2.72,0,0,0,.76.17.74.74,0,0,0,.51-.19.83.83,0,0,0,.24-.27,7.32,7.32,0,0,0,.58-1.31h3.47C182.54,35.57,182.33,36.16,182.15,36.65Zm-4,17a10.83,10.83,0,0,0-1.51-.66,6.16,6.16,0,0,0-2.18-.37,5.28,5.28,0,0,0-1.72.24,2.89,2.89,0,0,0-1.09.64,2.62,2.62,0,0,0-.92,2,2.37,2.37,0,0,0,.7,1.67,2.2,2.2,0,0,0,.82.51,3.2,3.2,0,0,0,1.21.19,6,6,0,0,0,2.62-.7,8,8,0,0,0,2.07-1.48Z"/><path class="cls-1" d="M203.14,59A9.81,9.81,0,0,1,189,59a11.11,11.11,0,0,1,0-14.77,9.81,9.81,0,0,1,14.18,0,11.14,11.14,0,0,1,0,14.77ZM200,47a5.44,5.44,0,0,0-8,0,6.57,6.57,0,0,0-1.59,4.57,6.6,6.6,0,0,0,1.59,4.58,5.44,5.44,0,0,0,8,0,6.64,6.64,0,0,0,1.58-4.58A6.61,6.61,0,0,0,200,47Z"/><path class="cls-1" d="M93.06,69.31h4.63V71h-3V74h2.81v1.58H94.73v3.09h3v1.7H93.06Z"/><path class="cls-1" d="M102.11,80.32h-1.53V72h1.33v.65a3.34,3.34,0,0,1,.72-.55,2.3,2.3,0,0,1,1.11-.22,1.61,1.61,0,0,1,1.29.47,2.51,2.51,0,0,1,.41,1.61v6.34H103.9v-6a1.06,1.06,0,0,0-.2-.74.78.78,0,0,0-.58-.2,1.13,1.13,0,0,0-.56.13,1.37,1.37,0,0,0-.45.45Z"/><path class="cls-1" d="M113.22,75.13a2.25,2.25,0,0,1-2.44,2.52,2.67,2.67,0,0,1-1.29-.29.61.61,0,0,0-.15.17.41.41,0,0,0-.06.23V78c0,.27.15.4.46.4h1.7a2.23,2.23,0,0,1,1.61.55,2.12,2.12,0,0,1,.57,1.59V81a2.94,2.94,0,0,1-.13.93,1.56,1.56,0,0,1-.46.68,2.35,2.35,0,0,1-.87.42,5.44,5.44,0,0,1-1.4.15,4.46,4.46,0,0,1-2.16-.41,1.36,1.36,0,0,1-.71-1.27v-.42a1.75,1.75,0,0,1,.24-1,1.44,1.44,0,0,1,.69-.57,1.17,1.17,0,0,1-.48-.36,1.06,1.06,0,0,1-.2-.68v-.32a1.19,1.19,0,0,1,.26-.77A1.64,1.64,0,0,1,109,77a2.59,2.59,0,0,1-.61-1.86v-.71a2.5,2.5,0,0,1,.66-1.91,2.84,2.84,0,0,1,3.21-.21,1.57,1.57,0,0,0,.29-.92v-.12a.36.36,0,0,0,0-.11h1.14a.45.45,0,0,0,0,.11s0,.08,0,.12a1.82,1.82,0,0,1-.22.88,1.7,1.7,0,0,1-.62.63,2.37,2.37,0,0,1,.28.67,3.22,3.22,0,0,1,.1.86Zm-3.33,4.59a1,1,0,0,0-.56.45,1.58,1.58,0,0,0-.15.71v.27a1.25,1.25,0,0,0,.07.45.64.64,0,0,0,.24.3,1.34,1.34,0,0,0,.48.18,5.61,5.61,0,0,0,.79,0,2,2,0,0,0,1.21-.27,1,1,0,0,0,.32-.77v-.21a1.35,1.35,0,0,0-.24-.84,1,1,0,0,0-.86-.32Zm1.84-5.37a1.59,1.59,0,0,0-.22-.94.87.87,0,0,0-.73-.29.77.77,0,0,0-.7.31,1.68,1.68,0,0,0-.21.93v.84c0,.81.31,1.22.91,1.22a1,1,0,0,0,.7-.25,1.12,1.12,0,0,0,.25-.82Z"/><path class="cls-1" d="M117.45,76.32V78a.87.87,0,0,0,.89,1,1.15,1.15,0,0,0,.52-.1.79.79,0,0,0,.3-.27,1,1,0,0,0,.14-.38,3.42,3.42,0,0,0,0-.45c0-.11,0-.23,0-.34s0-.23,0-.34h1.42a2.32,2.32,0,0,1,.07.38c0,.13,0,.28,0,.44a4.24,4.24,0,0,1-.11.94,2.24,2.24,0,0,1-.38.81,1.88,1.88,0,0,1-.73.56,2.76,2.76,0,0,1-1.14.21,2.51,2.51,0,0,1-1.75-.6A2.3,2.3,0,0,1,116,78v-3.7a2.42,2.42,0,0,1,.64-1.83,2.55,2.55,0,0,1,1.79-.58,2.22,2.22,0,0,1,1.84.67,3.24,3.24,0,0,1,.53,2v.5c0,.29,0,.54,0,.74a4.87,4.87,0,0,1,0,.51Zm0-1h1.87a1.57,1.57,0,0,0,0-.25c0-.11,0-.21,0-.31v-.24a1.67,1.67,0,0,0-.19-.9.85.85,0,0,0-.75-.29.91.91,0,0,0-.71.26,1.08,1.08,0,0,0-.25.78Z"/><path class="cls-1" d="M125.19,80.32h-1.53V72H125v.65a3.28,3.28,0,0,1,.71-.55,2.35,2.35,0,0,1,1.12-.22,1.58,1.58,0,0,1,1.28.47,2.51,2.51,0,0,1,.41,1.61v6.34H127v-6a1.06,1.06,0,0,0-.19-.74.81.81,0,0,0-.59-.2,1.13,1.13,0,0,0-.56.13,1.37,1.37,0,0,0-.45.45Z"/><path class="cls-1" d="M133,80.32h-1.53v-11H133v3.22a1.65,1.65,0,0,1,.65-.47,2.63,2.63,0,0,1,1-.16,1.58,1.58,0,0,1,1.28.47,2.51,2.51,0,0,1,.41,1.61v6.34h-1.54v-6a1,1,0,0,0-.2-.75.8.8,0,0,0-.58-.19,1.13,1.13,0,0,0-.56.13A1.37,1.37,0,0,0,133,74Z"/><path class="cls-1" d="M144.78,80.14a.91.91,0,0,1-.4.22,1.46,1.46,0,0,1-.52.08,1.23,1.23,0,0,1-.85-.25,1.38,1.38,0,0,1-.4-.57,1.28,1.28,0,0,1-.21.28,1.6,1.6,0,0,1-.34.26,2.61,2.61,0,0,1-.5.19,2.78,2.78,0,0,1-.69.08,1.84,1.84,0,0,1-1.28-.44,1.8,1.8,0,0,1-.49-1.39v-.82a4.1,4.1,0,0,1,.06-.76,1.83,1.83,0,0,1,.18-.53,1.22,1.22,0,0,1,.32-.36,2,2,0,0,1,.47-.28,7,7,0,0,1,1.14-.39,8.65,8.65,0,0,0,1.12-.37v-.85a1,1,0,0,0-.19-.69,1,1,0,0,0-.71-.21.84.84,0,0,0-.73.25,1.32,1.32,0,0,0-.17.7,3.54,3.54,0,0,0,.07.75H139.3c0-.13,0-.26-.05-.39s0-.29,0-.48a4,4,0,0,1,.11-.94,1.67,1.67,0,0,1,.38-.72,1.62,1.62,0,0,1,.7-.46,3.35,3.35,0,0,1,1.08-.15,3.93,3.93,0,0,1,1.18.14,1.72,1.72,0,0,1,.74.45,1.89,1.89,0,0,1,.39.76,4.67,4.67,0,0,1,.11,1.06v4.51a.46.46,0,0,0,.12.35.36.36,0,0,0,.28.12.67.67,0,0,0,.26-.05.81.81,0,0,0,.2-.14Zm-3.36-1.09a1,1,0,0,0,.56-.16,2.34,2.34,0,0,0,.41-.32V76.25a2.2,2.2,0,0,1-.49.15,3.1,3.1,0,0,0-.58.21,1.55,1.55,0,0,0-.5.38,1,1,0,0,0-.2.65v.51a.92.92,0,0,0,.22.7A.85.85,0,0,0,141.42,79.05Z"/><path class="cls-1" d="M148.64,72.84a3,3,0,0,1,.74-.68,1.79,1.79,0,0,1,1-.26,1.3,1.3,0,0,1,.67.16,1.27,1.27,0,0,1,.44.45,2,2,0,0,1,.24.64,3.87,3.87,0,0,1,.08.77,5.06,5.06,0,0,1-.15,1.26H150.3a2.84,2.84,0,0,0,.1-.49,2.42,2.42,0,0,0,0-.45,1.45,1.45,0,0,0-.13-.59.52.52,0,0,0-.51-.27.93.93,0,0,0-.54.2,1.52,1.52,0,0,0-.43.48v6.26H147.3V72h1.34Z"/><path class="cls-1" d="M154.52,69.31h1.54V71h-1.54Zm1.52,11h-1.52V72H156Z"/><path class="cls-1" d="M164.55,80.14a1,1,0,0,1-.4.22,1.46,1.46,0,0,1-.52.08,1.23,1.23,0,0,1-.85-.25,1.38,1.38,0,0,1-.4-.57,1.28,1.28,0,0,1-.21.28,1.6,1.6,0,0,1-.34.26,2.61,2.61,0,0,1-.5.19,2.84,2.84,0,0,1-.69.08,1.84,1.84,0,0,1-1.28-.44,1.77,1.77,0,0,1-.49-1.39v-.82a4.1,4.1,0,0,1,.06-.76,1.83,1.83,0,0,1,.18-.53,1.22,1.22,0,0,1,.32-.36,1.77,1.77,0,0,1,.47-.28,7,7,0,0,1,1.14-.39,9.19,9.19,0,0,0,1.12-.37v-.85a1,1,0,0,0-.19-.69,1,1,0,0,0-.71-.21.84.84,0,0,0-.73.25,1.32,1.32,0,0,0-.17.7,3.54,3.54,0,0,0,.07.75h-1.36c0-.13,0-.26,0-.39a3.47,3.47,0,0,1,0-.48,3.51,3.51,0,0,1,.11-.94,1.62,1.62,0,0,1,1.07-1.18,3.46,3.46,0,0,1,1.09-.15,4,4,0,0,1,1.18.14,1.72,1.72,0,0,1,.74.45,1.89,1.89,0,0,1,.39.76,4.67,4.67,0,0,1,.11,1.06v4.51a.51.51,0,0,0,.11.35.4.4,0,0,0,.29.12.67.67,0,0,0,.26-.05.81.81,0,0,0,.2-.14Zm-3.36-1.09a1,1,0,0,0,.56-.16,2.34,2.34,0,0,0,.41-.32V76.25a2.2,2.2,0,0,1-.49.15,3.1,3.1,0,0,0-.58.21,1.55,1.55,0,0,0-.5.38.92.92,0,0,0-.2.65v.51a.92.92,0,0,0,.22.7A.85.85,0,0,0,161.19,79.05Z"/><path class="cls-2" d="M40,37.71V10.42H30.07v3.29h6.61V29.77L18.33,11.43C23.83,6.49,32.51,3.79,40,3.79V.5H10.36V3.79H23.87a33.34,33.34,0,0,0-9.06,6.45L13.65,11.4Z"/><path class="cls-2" d="M37.71,39.94H10.36v-9.8h3.28v6.51H29.77L11.43,18.31c-4.94,5.5-7.64,14.18-7.64,21.63H.5V.5H3.79V23.85a33.19,33.19,0,0,1,6.45-9.06l1.16-1.16Z"/><path class="cls-2" d="M43.2,37.71V10.42h9.89v3.29H46.48V29.77L64.83,11.43C59.33,6.49,50.65,3.79,43.2,3.79V.5H72.8V3.79H59.29a33.14,33.14,0,0,1,9.05,6.45l1.17,1.16Z"/><path class="cls-2" d="M45.45,39.94H72.8v-9.8H69.52v6.51H53.38L71.73,18.31c4.94,5.5,7.64,14.18,7.64,21.63h3.29V.5H79.37V23.85a33.19,33.19,0,0,0-6.45-9.06l-1.16-1.16Z"/><path class="cls-2" d="M40,45.51V72.79H30.07V69.51h6.61V53.44L18.33,71.78c5.5,4.94,14.18,7.65,21.63,7.65v3.28H10.36V79.43H23.87A33.56,33.56,0,0,1,14.81,73l-1.16-1.17Z"/><path class="cls-2" d="M37.71,43.27H10.36v9.81h3.28V46.56H29.77L11.43,64.9C6.49,59.4,3.79,50.72,3.79,43.27H.5V82.71H3.79V59.36a33.19,33.19,0,0,0,6.45,9.06l1.16,1.16Z"/><path class="cls-2" d="M43.2,45.51V72.79h9.89V69.51H46.48V53.44L64.83,71.78c-5.5,4.94-14.18,7.65-21.63,7.65v3.28H72.8V79.43H59.29A33.36,33.36,0,0,0,68.34,73l1.17-1.17Z"/><path class="cls-2" d="M45.45,43.27H72.8v9.81H69.52V46.56H53.38L71.73,64.9c4.94-5.5,7.64-14.18,7.64-21.63h3.29V82.71H79.37V59.36a33.19,33.19,0,0,1-6.45,9.06l-1.16,1.16Z"/></g></g></svg>