<svg xmlns="http://www.w3.org/2000/svg" viewBox="0 0 27.11 20.63"><defs><style>.cls-1{fill:#b89d3a;}</style></defs><title>mail-icon</title><g id="Camada_2" data-name="Camada 2"><g id="layout"><path class="cls-1" d="M23.8,0H3.31A3.32,3.32,0,0,0,0,3.31v14a3.32,3.32,0,0,0,3.31,3.32H23.79a3.32,3.32,0,0,0,3.32-3.32v-14A3.32,3.32,0,0,0,23.8,0Zm1.8,17.31a1.8,1.8,0,0,1-1.8,1.8H3.31a1.8,1.8,0,0,1-1.8-1.8v-14a1.81,1.81,0,0,1,1.8-1.8H23.79a1.81,1.81,0,0,1,1.8,1.8v14Z"/><path class="cls-1" d="M17.09,10.14,23.72,4.2a.76.76,0,1,0-1-1.13l-9.14,8.2L11.78,9.68v0l-.12-.1L4.39,3.06a.76.76,0,0,0-1.07.06A.77.77,0,0,0,3.38,4.2l6.71,6L3.41,16.44a.77.77,0,0,0,0,1.08.79.79,0,0,0,.55.24.75.75,0,0,0,.52-.21l6.78-6.34,1.84,1.64a.74.74,0,0,0,.5.2.76.76,0,0,0,.51-.2L16,11.16l6.74,6.4a.76.76,0,0,0,1-1.1Z"/></g></g></svg>