<svg xmlns="http://www.w3.org/2000/svg" viewBox="0 0 19.06 27.11"><defs><style>.cls-1{fill:#b89d3a;}</style></defs><title>maps-icon</title><g id="Camada_2" data-name="Camada 2"><g id="layout"><path class="cls-1" d="M9.53,0A9.53,9.53,0,0,0,1.42,14.54L9,26.73a.8.8,0,0,0,.67.38h0a.81.81,0,0,0,.67-.39l7.37-12.31A9.52,9.52,0,0,0,9.53,0Zm6.82,13.6L9.65,24.79,2.77,13.7a8,8,0,1,1,13.58-.1Z"/><path class="cls-1" d="M9.53,4.76a4.77,4.77,0,1,0,4.76,4.77A4.78,4.78,0,0,0,9.53,4.76Zm0,8a3.19,3.19,0,1,1,3.18-3.19A3.19,3.19,0,0,1,9.53,12.72Z"/></g></g></svg>