<svg xmlns="http://www.w3.org/2000/svg" viewBox="0 0 100.7 98.93"><defs><style>.cls-1{fill:none;stroke:#121e33;stroke-linecap:round;stroke-linejoin:round;stroke-width:0.92px;}.cls-2{fill:#121e33;}</style></defs><title>pattern</title><g id="Camada_2" data-name="Camada 2"><g id="layout"><path class="cls-1" d="M74.75,97.13V80.84h-5.9v2h3.94V92.4l-11-11c3.28-3,8.46-4.57,12.91-4.57v-2H57.08v2h8.07a20,20,0,0,0-5.41,3.85l-.69.7Z"/><path class="cls-1" d="M73.41,98.47H57.08V92.61h2v3.9h9.63l-11-11c-2.95,3.29-4.57,8.47-4.57,12.92h-2V74.92h2V88.86A19.77,19.77,0,0,1,57,83.45l.69-.69Z"/><path class="cls-1" d="M76.68,97.13V80.84h5.91v2H78.65V92.4l10.95-11c-3.28-3-8.47-4.57-12.92-4.57v-2H94.36v2H86.29a20,20,0,0,1,5.41,3.85l.69.7Z"/><path class="cls-1" d="M78,98.47H94.36V92.61h-2v3.9H82.77l11-11c3,3.29,4.56,8.47,4.56,12.92h2V74.92h-2V88.86a19.74,19.74,0,0,0-3.85-5.41l-.69-.69Z"/><path class="cls-2" d="M24.13,97.13V80.84h-5.9v2h3.94V92.4l-11-11c3.28-3,8.47-4.57,12.91-4.57v-2H6.46v2h8.07a20,20,0,0,0-5.41,3.85l-.69.7Z"/><path class="cls-2" d="M22.79,98.47H6.46V92.61h2v3.9h9.63l-11-11C4.15,88.84,2.54,94,2.54,98.47h-2V74.92h2V88.86a19.74,19.74,0,0,1,3.85-5.41l.69-.69Z"/><path class="cls-2" d="M26.07,97.13V80.84H32v2H28V92.4L39,81.45c-3.28-3-8.47-4.57-12.91-4.57v-2H43.74v2H35.67a20,20,0,0,1,5.41,3.85l.69.7Z"/><path class="cls-2" d="M27.41,98.47H43.74V92.61h-2v3.9H32.15l11-11c2.95,3.29,4.56,8.47,4.56,12.92h2V74.92h-2V88.86a19.74,19.74,0,0,0-3.85-5.41l-.69-.69Z"/><path class="cls-1" d="M24,47.13V30.84H18.11v2h3.95V42.4l-11-10.95c3.29-2.95,8.47-4.57,12.92-4.57v-2H6.34v2h8.07A20,20,0,0,0,9,30.73l-.69.7Z"/><path class="cls-1" d="M22.67,48.47H6.34V42.61h2v3.9h9.64l-11-11C4,38.84,2.42,44,2.42,48.47h-2V24.92h2V38.86a20,20,0,0,1,3.85-5.41L7,32.76Z"/><path class="cls-1" d="M26,47.13V30.84h5.91v2H27.91V42.4l11-10.95C35.58,28.5,30.4,26.88,26,26.88v-2H43.63v2H35.56A19.9,19.9,0,0,1,41,30.73l.7.7Z"/><path class="cls-1" d="M27.3,48.47H43.63V42.61h-2v3.9H32l11-11c2.95,3.29,4.56,8.47,4.56,12.92h2V24.92h-2V38.86a20,20,0,0,0-3.85-5.41l-.7-.69Z"/><path class="cls-1" d="M24,51.79V68.08H18.11v-2h3.95V56.53l-11,11C14.39,70.43,19.57,72,24,72v2H6.34V72h8.07A19.74,19.74,0,0,1,9,68.19l-.69-.69Z"/><path class="cls-1" d="M22.67,50.46H6.34v5.85h2V52.42h9.64L7,63.37C4,60.09,2.42,54.91,2.42,50.46h-2V74h2V60.07a19.9,19.9,0,0,0,3.85,5.4l.69.7Z"/><path class="cls-1" d="M26,51.79V68.08h5.91v-2H27.91V56.53l11,11C35.58,70.43,30.4,72,26,72v2H43.63V72H35.56A19.69,19.69,0,0,0,41,68.19l.7-.69Z"/><path class="cls-1" d="M27.3,50.46H43.63v5.85h-2V52.42H32L43,63.37c2.95-3.28,4.56-8.46,4.56-12.91h2V74h-2V60.07a19.9,19.9,0,0,1-3.85,5.4l-.7.7Z"/><path class="cls-2" d="M74.87,47.13V30.84H69v2h4V42.4L62,31.45c3.29-2.95,8.47-4.57,12.92-4.57v-2H57.19v2h8.07a20.11,20.11,0,0,0-5.41,3.85l-.69.7Z"/><path class="cls-2" d="M73.52,48.47H57.19V42.61h2v3.9h9.64l-11-11c-2.95,3.29-4.56,8.47-4.56,12.92h-2V24.92h2V38.86a20,20,0,0,1,3.85-5.41l.69-.69Z"/><path class="cls-2" d="M76.8,47.13V30.84h5.91v2H78.76V42.4l11-10.95c-3.29-2.95-8.47-4.57-12.92-4.57v-2H94.48v2H86.41a20.11,20.11,0,0,1,5.41,3.85l.69.7Z"/><path class="cls-2" d="M78.15,48.47H94.48V42.61h-2v3.9H82.88l11-11c3,3.29,4.56,8.47,4.56,12.92h2V24.92h-2V38.86a20,20,0,0,0-3.85-5.41l-.7-.69Z"/><path class="cls-2" d="M74.87,51.79V68.08H69v-2h4V56.53l-11,11c3.29,3,8.47,4.56,12.92,4.56v2H57.19V72h8.07a19.89,19.89,0,0,1-5.41-3.85l-.69-.69Z"/><path class="cls-2" d="M73.52,50.46H57.19v5.85h2V52.42h9.64l-11,10.95c-2.95-3.28-4.56-8.46-4.56-12.91h-2V74h2V60.07a19.9,19.9,0,0,0,3.85,5.4l.69.7Z"/><path class="cls-2" d="M76.8,51.79V68.08h5.91v-2H78.76V56.53l11,11C86.43,70.43,81.25,72,76.8,72v2H94.48V72H86.41a19.89,19.89,0,0,0,5.41-3.85l.69-.69Z"/><path class="cls-2" d="M78.15,50.46H94.48v5.85h-2V52.42H82.88l11,10.95c3-3.28,4.56-8.46,4.56-12.91h2V74h-2V60.07a19.9,19.9,0,0,1-3.85,5.4l-.7.7Z"/><path class="cls-1" d="M74.75,1.79V18.08h-5.9v-2h3.94V6.53l-11,11C65.12,20.43,70.3,22,74.75,22v2H57.08V22h8.07a19.74,19.74,0,0,1-5.41-3.85l-.69-.69Z"/><path class="cls-1" d="M73.41.46H57.08V6.31h2V2.42h9.63l-11,11C54.77,10.09,53.15,4.91,53.15.46h-2V24h2V10.07A19.73,19.73,0,0,0,57,15.47l.69.7Z"/><path class="cls-1" d="M76.68,1.79V18.08h5.91v-2H78.65V6.53l10.95,11C86.32,20.43,81.13,22,76.68,22v2H94.36V22H86.29a19.74,19.74,0,0,0,5.41-3.85l.69-.69Z"/><path class="cls-1" d="M78,.46H94.36V6.31h-2V2.42H82.77l11,11c3-3.28,4.56-8.46,4.56-12.91h2V24h-2V10.07a19.69,19.69,0,0,1-3.85,5.4l-.69.7Z"/><path class="cls-2" d="M24.13,1.79V18.08h-5.9v-2h3.94V6.53l-11,11C14.5,20.43,19.69,22,24.13,22v2H6.46V22h8.07a19.74,19.74,0,0,1-5.41-3.85l-.69-.69Z"/><path class="cls-2" d="M22.79.46H6.46V6.31h2V2.42h9.63l-11,11C4.15,10.09,2.54,4.91,2.54.46h-2V24h2V10.07a19.69,19.69,0,0,0,3.85,5.4l.69.7Z"/><path class="cls-2" d="M26.07,1.79V18.08H32v-2H28V6.53L39,17.48C35.7,20.43,30.51,22,26.07,22v2H43.74V22H35.67a19.74,19.74,0,0,0,5.41-3.85l.69-.69Z"/><path class="cls-2" d="M27.41.46H43.74V6.31h-2V2.42H32.15l11,11c2.95-3.28,4.56-8.46,4.56-12.91h2V24h-2V10.07a19.69,19.69,0,0,1-3.85,5.4l-.69.7Z"/></g></g></svg>