<svg xmlns="http://www.w3.org/2000/svg" viewBox="0 0 27.07 27.11"><defs><style>.cls-1{fill:#b89d3a;}</style></defs><title>phone-icon</title><g id="Camada_2" data-name="Camada 2"><g id="layout"><path class="cls-1" d="M21.4,16.79a2.64,2.64,0,0,0-1.93-.89,2.78,2.78,0,0,0-2,.89l-1.81,1.8-.44-.23c-.2-.1-.4-.2-.56-.3A19.61,19.61,0,0,1,10,13.76a11.41,11.41,0,0,1-1.55-2.43c.47-.43.91-.88,1.33-1.31l.48-.48a2.63,2.63,0,0,0,0-4L8.69,4c-.18-.18-.36-.36-.53-.55-.34-.35-.7-.72-1.08-1.06a2.69,2.69,0,0,0-1.91-.84,2.8,2.8,0,0,0-1.95.84h0l-1.95,2A4.25,4.25,0,0,0,0,7a10.13,10.13,0,0,0,.74,4.25,24.66,24.66,0,0,0,4.37,7.3,27,27,0,0,0,9,7,13.88,13.88,0,0,0,5,1.48l.36,0a4.33,4.33,0,0,0,3.3-1.42l0,0a12.1,12.1,0,0,1,1-1l.74-.73a2.84,2.84,0,0,0,.86-2,2.77,2.77,0,0,0-.88-2Zm2.05,6h0c-.22.24-.45.45-.7.69a15.1,15.1,0,0,0-1.1,1.15,2.76,2.76,0,0,1-2.15.91h-.27a12.44,12.44,0,0,1-4.46-1.34,25.25,25.25,0,0,1-8.44-6.61,23.2,23.2,0,0,1-4.12-6.86,8.11,8.11,0,0,1-.64-3.58,2.61,2.61,0,0,1,.79-1.7L4.31,3.52a1.32,1.32,0,0,1,.87-.41,1.22,1.22,0,0,1,.83.4l0,0c.35.33.68.66,1,1l.54.56L9.17,6.67a1.1,1.1,0,0,1,0,1.77l-.5.5c-.48.49-.93,1-1.43,1.39l0,0a1.18,1.18,0,0,0-.3,1.3l0,.05a12.36,12.36,0,0,0,1.85,3h0a21,21,0,0,0,5.08,4.62c.24.15.48.27.71.39s.4.2.56.3l.07,0a1.19,1.19,0,0,0,1.44-.25l1.95-2a1.34,1.34,0,0,1,.87-.43,1.19,1.19,0,0,1,.82.42h0L23.45,21A1.15,1.15,0,0,1,23.45,22.82Z" transform="translate(0 0)"/><path class="cls-1" d="M14.63,6.45a7.35,7.35,0,0,1,6,6,.77.77,0,0,0,.77.64h.13a.77.77,0,0,0,.63-.89A8.86,8.86,0,0,0,19.67,7.4,8.75,8.75,0,0,0,14.9,4.93a.77.77,0,0,0-.27,1.52Z" transform="translate(0 0)"/><path class="cls-1" d="M27.05,12A14.45,14.45,0,0,0,23,4.09,14.56,14.56,0,0,0,15.11,0a.77.77,0,1,0-.25,1.52,13.05,13.05,0,0,1,7,3.65,12.94,12.94,0,0,1,3.64,7,.77.77,0,0,0,.76.64h.14A.75.75,0,0,0,27.05,12Z" transform="translate(0 0)"/></g></g></svg>