<svg xmlns="http://www.w3.org/2000/svg" viewBox="0 0 23.02 22.9"><defs><style>.cls-1{fill:#fff;}</style></defs><title>whats-icon-white</title><g id="Camada_2" data-name="Camada 2"><g id="layout"><path class="cls-1" d="M0,22.9c.61-1.88,1.17-3.4,1.59-5a2.89,2.89,0,0,0-.08-1.84A11.29,11.29,0,0,1,21.71,6a11.05,11.05,0,0,1-4.52,14.92,11.24,11.24,0,0,1-10.06.39,3.12,3.12,0,0,0-1.84-.11C3.61,21.67,2,22.26,0,22.9Zm2.79-3.16.31.14a10.81,10.81,0,0,0,1.51-.4A3.84,3.84,0,0,1,8,19.6a9.19,9.19,0,0,0,13.06-8,9.55,9.55,0,0,0-5.33-9A9.7,9.7,0,0,0,5.11,4.22a8.71,8.71,0,0,0-2.38,9.87C3.6,16.05,4.15,17.79,2.79,19.74Z"/><path class="cls-1" d="M14.49,16.46A14.27,14.27,0,0,1,11,14.86a25.9,25.9,0,0,1-4-4.26,3.1,3.1,0,0,1-.53-2.34A4.84,4.84,0,0,1,7.91,6.2c.14-.14,1.1.21,1.23.52.38.91,1.52,1.78.39,3a1.2,1.2,0,0,0,0,1.2,25.37,25.37,0,0,0,3.08,2.6,1.43,1.43,0,0,0,1.31-.27c.57-.57,1-1.13,1.85-.48.61.48,1.73,1.21,1.64,1.52a5.66,5.66,0,0,1-1.65,2C15.54,16.4,15.14,16.35,14.49,16.46Z"/></g></g></svg>